<svg xmlns="http://www.w3.org/2000/svg" xmlns:xlink="http://www.w3.org/1999/xlink" width="500" zoomAndPan="magnify" viewBox="0 0 375 374.999991" height="500" preserveAspectRatio="xMidYMid meet" version="1.0"><defs><g/><clipPath id="8297af8dba"><path d="M 85.109375 114.601562 L 135.894531 114.601562 L 135.894531 260.417969 L 85.109375 260.417969 Z M 85.109375 114.601562 " clip-rule="nonzero"/></clipPath><clipPath id="d8618c5c38"><path d="M 93.042969 114.601562 L 127.960938 114.601562 C 132.34375 114.601562 135.894531 118.15625 135.894531 122.539062 L 135.894531 252.460938 C 135.894531 256.84375 132.34375 260.398438 127.960938 260.398438 L 93.042969 260.398438 C 88.660156 260.398438 85.109375 256.84375 85.109375 252.460938 L 85.109375 122.539062 C 85.109375 118.15625 88.660156 114.601562 93.042969 114.601562 Z M 93.042969 114.601562 " clip-rule="nonzero"/></clipPath><clipPath id="e9aba17531"><path d="M 122.488281 227.199219 L 359.71875 227.199219 L 359.71875 260.398438 L 122.488281 260.398438 Z M 122.488281 227.199219 " clip-rule="nonzero"/></clipPath><clipPath id="8dd8d7f3a7"><path d="M 9.433594 114.894531 L 95.683594 114.894531 L 95.683594 260.394531 L 9.433594 260.394531 Z M 9.433594 114.894531 " clip-rule="nonzero"/></clipPath><clipPath id="ece9c77550"><path d="M 69.574219 169 L 80 169 L 80 187 L 69.574219 187 Z M 69.574219 169 " clip-rule="nonzero"/></clipPath><clipPath id="2d1ba3085f"><path d="M 93 169 L 103.324219 169 L 103.324219 187 L 93 187 Z M 93 169 " clip-rule="nonzero"/></clipPath><clipPath id="7caddfc106"><path d="M 81 166 L 92 166 L 92 189.875 L 81 189.875 Z M 81 166 " clip-rule="nonzero"/></clipPath></defs><g clip-path="url(#8297af8dba)"><g clip-path="url(#d8618c5c38)"><path fill="#06336e" d="M 85.109375 114.601562 L 135.894531 114.601562 L 135.894531 260.417969 L 85.109375 260.417969 Z M 85.109375 114.601562 " fill-opacity="1" fill-rule="nonzero"/></g></g><g clip-path="url(#e9aba17531)"><path fill="#06336e" d="M 122.488281 227.199219 L 359.6875 227.199219 L 359.6875 260.398438 L 122.488281 260.398438 Z M 122.488281 227.199219 " fill-opacity="1" fill-rule="nonzero"/></g><g clip-path="url(#8dd8d7f3a7)"><path fill="#06336e" d="M 81.9375 114.648438 L 93.316406 114.648438 C 93.648438 114.644531 93.96875 114.707031 94.273438 114.835938 C 94.582031 114.960938 94.851562 115.140625 95.085938 115.375 C 95.320312 115.609375 95.5 115.882812 95.628906 116.1875 C 95.753906 116.496094 95.816406 116.8125 95.8125 117.144531 L 95.8125 257.847656 C 95.816406 258.179688 95.753906 258.5 95.628906 258.804688 C 95.5 259.113281 95.320312 259.382812 95.085938 259.617188 C 94.851562 259.851562 94.582031 260.03125 94.273438 260.160156 C 93.96875 260.285156 93.648438 260.347656 93.316406 260.347656 L 81.9375 260.347656 C 80.746094 260.347656 79.554688 260.316406 78.363281 260.257812 C 77.171875 260.199219 75.984375 260.113281 74.796875 259.996094 C 73.609375 259.878906 72.429688 259.734375 71.25 259.558594 C 70.070312 259.382812 68.894531 259.179688 67.726562 258.945312 C 66.554688 258.714844 65.394531 258.453125 64.238281 258.164062 C 63.082031 257.875 61.933594 257.554688 60.789062 257.210938 C 59.648438 256.863281 58.519531 256.488281 57.394531 256.089844 C 56.273438 255.6875 55.160156 255.257812 54.058594 254.800781 C 52.957031 254.34375 51.867188 253.863281 50.789062 253.351562 C 49.714844 252.84375 48.648438 252.308594 47.597656 251.746094 C 46.546875 251.183594 45.507812 250.59375 44.484375 249.980469 C 43.464844 249.371094 42.457031 248.730469 41.464844 248.070312 C 40.472656 247.40625 39.5 246.722656 38.542969 246.011719 C 37.585938 245.300781 36.644531 244.566406 35.722656 243.8125 C 34.800781 243.054688 33.898438 242.277344 33.015625 241.476562 C 32.132812 240.675781 31.269531 239.851562 30.425781 239.007812 C 29.582031 238.167969 28.761719 237.304688 27.960938 236.421875 C 27.160156 235.535156 26.382812 234.632812 25.625 233.710938 C 24.867188 232.789062 24.136719 231.851562 23.425781 230.894531 C 22.714844 229.9375 22.027344 228.960938 21.367188 227.96875 C 20.703125 226.980469 20.066406 225.972656 19.453125 224.949219 C 18.839844 223.925781 18.253906 222.890625 17.691406 221.839844 C 17.128906 220.785156 16.59375 219.722656 16.082031 218.644531 C 15.574219 217.566406 15.089844 216.476562 14.632812 215.375 C 14.175781 214.273438 13.75 213.160156 13.347656 212.039062 C 12.945312 210.917969 12.570312 209.785156 12.226562 208.644531 C 11.878906 207.503906 11.5625 206.355469 11.273438 205.199219 C 10.980469 204.042969 10.722656 202.878906 10.488281 201.710938 C 10.253906 200.539062 10.050781 199.367188 9.878906 198.1875 C 9.703125 197.007812 9.554688 195.824219 9.4375 194.636719 C 9.324219 193.449219 9.234375 192.261719 9.175781 191.070312 C 9.117188 189.882812 9.089844 188.6875 9.089844 187.496094 C 9.089844 186.304688 9.117188 185.113281 9.175781 183.921875 C 9.234375 182.730469 9.324219 181.542969 9.4375 180.355469 C 9.554688 179.171875 9.703125 177.988281 9.878906 176.808594 C 10.050781 175.628906 10.253906 174.453125 10.488281 173.285156 C 10.722656 172.117188 10.980469 170.953125 11.273438 169.796875 C 11.5625 168.640625 11.878906 167.492188 12.226562 166.351562 C 12.570312 165.210938 12.945312 164.078125 13.347656 162.953125 C 13.75 161.832031 14.175781 160.71875 14.632812 159.617188 C 15.089844 158.515625 15.574219 157.425781 16.082031 156.351562 C 16.59375 155.273438 17.128906 154.207031 17.691406 153.15625 C 18.253906 152.105469 18.839844 151.066406 19.453125 150.042969 C 20.066406 149.023438 20.703125 148.015625 21.367188 147.023438 C 22.027344 146.03125 22.714844 145.058594 23.425781 144.101562 C 24.136719 143.144531 24.867188 142.203125 25.625 141.28125 C 26.382812 140.359375 27.160156 139.457031 27.960938 138.574219 C 28.761719 137.691406 29.582031 136.828125 30.425781 135.984375 C 31.269531 135.140625 32.132812 134.320312 33.015625 133.519531 C 33.898438 132.71875 34.800781 131.941406 35.722656 131.183594 C 36.644531 130.425781 37.585938 129.695312 38.542969 128.984375 C 39.5 128.273438 40.472656 127.585938 41.464844 126.925781 C 42.457031 126.261719 43.464844 125.625 44.484375 125.011719 C 45.507812 124.398438 46.546875 123.8125 47.597656 123.25 C 48.648438 122.6875 49.714844 122.152344 50.789062 121.640625 C 51.867188 121.132812 52.957031 120.648438 54.058594 120.191406 C 55.160156 119.738281 56.273438 119.308594 57.394531 118.90625 C 58.519531 118.503906 59.648438 118.128906 60.789062 117.785156 C 61.933594 117.4375 63.082031 117.121094 64.238281 116.832031 C 65.394531 116.539062 66.554688 116.28125 67.726562 116.046875 C 68.894531 115.816406 70.070312 115.609375 71.25 115.4375 C 72.429688 115.261719 73.609375 115.113281 74.796875 115 C 75.984375 114.882812 77.171875 114.792969 78.363281 114.734375 C 79.554688 114.675781 80.746094 114.648438 81.9375 114.648438 Z M 81.9375 114.648438 " fill-opacity="1" fill-rule="nonzero"/></g><path fill="#aad4ff" d="M 66.65625 194.464844 C 49.851562 192.691406 52.675781 166.558594 66.210938 159.4375 C 75.179688 154.722656 87.289062 154.925781 95.394531 158.109375 C 110.769531 164.140625 114.851562 171.851562 117.0625 186.929688 C 119.273438 202.007812 111.863281 241.882812 94.070312 246.347656 C 78.152344 250.335938 72.007812 242.597656 73.730469 235.261719 C 75.5 227.722656 84.214844 217.957031 84.785156 211.316406 C 86.109375 195.796875 66.65625 194.46875 66.65625 194.46875 Z M 66.65625 194.464844 " fill-opacity="1" fill-rule="nonzero"/><path fill="#aad4ff" d="M 36.714844 157.667969 C 41.214844 164.222656 49.753906 166.160156 55.789062 161.996094 C 61.824219 157.828125 63.066406 149.136719 58.566406 142.582031 C 54.0625 136.027344 45.523438 134.089844 39.488281 138.257812 C 33.457031 142.421875 32.210938 151.113281 36.714844 157.667969 Z M 36.714844 157.667969 " fill-opacity="1" fill-rule="nonzero"/><path fill="#aad4ff" d="M 71.414062 153.542969 C 75.265625 154.199219 78.902344 151.699219 79.539062 147.957031 C 80.171875 144.214844 77.714844 138.589844 73.863281 137.933594 C 70.011719 137.277344 66.375 139.777344 65.738281 143.515625 C 65.101562 147.257812 67.5625 152.882812 71.414062 153.542969 Z M 71.414062 153.542969 " fill-opacity="1" fill-rule="nonzero"/><path fill="#aad4ff" d="M 83.902344 150.839844 C 86.085938 153.941406 89.28125 154.539062 92.472656 152.28125 C 95.667969 150.023438 96.417969 143.585938 94.238281 140.484375 C 92.054688 137.378906 88.859375 136.785156 85.667969 139.039062 C 82.472656 141.296875 81.722656 147.738281 83.902344 150.839844 Z M 83.902344 150.839844 " fill-opacity="1" fill-rule="nonzero"/><path fill="#aad4ff" d="M 97.242188 153.167969 C 97.914062 156.40625 101.265625 158.445312 104.734375 157.722656 C 108.203125 157.003906 111.019531 152.09375 110.351562 148.855469 C 109.679688 145.621094 106.324219 143.582031 102.859375 144.300781 C 99.390625 145.023438 96.574219 149.933594 97.242188 153.167969 Z M 97.242188 153.167969 " fill-opacity="1" fill-rule="nonzero"/><path fill="#aad4ff" d="M 111.328125 157.804688 C 109.355469 160.753906 109.730469 164.472656 112.164062 166.109375 C 114.597656 167.746094 118.171875 166.679688 120.140625 163.730469 C 122.113281 160.78125 121.738281 157.0625 119.304688 155.429688 C 116.871094 153.792969 113.300781 154.855469 111.328125 157.804688 Z M 111.328125 157.804688 " fill-opacity="1" fill-rule="nonzero"/><g fill="#06336e" fill-opacity="1"><g transform="translate(140.395879, 179.445849)"><g><path d="M 7.265625 0 L 7.265625 -44.984375 L 0.640625 -44.984375 L 0.640625 -55.671875 L 25.015625 -55.671875 L 25.015625 -44.984375 L 18.40625 -44.984375 L 18.40625 0 Z M 7.265625 0 "/></g></g></g><g fill="#06336e" fill-opacity="1"><g transform="translate(166.059265, 179.445849)"><g><path d="M 0.96875 0 L 6.359375 -55.671875 L 25.21875 -55.671875 L 30.53125 0 L 19.96875 0 L 19.1875 -9.015625 L 12.4375 -9.015625 L 11.796875 0 Z M 13.28125 -17.890625 L 18.34375 -17.890625 L 15.875 -46.21875 L 15.359375 -46.21875 Z M 13.28125 -17.890625 "/></g></g></g><g fill="#06336e" fill-opacity="1"><g transform="translate(197.49042, 179.445849)"><g><path d="M 2.46875 -55.671875 L 19.578125 -55.671875 C 22.296875 -55.671875 24.398438 -55.054688 25.890625 -53.828125 C 27.378906 -52.597656 28.382812 -50.867188 28.90625 -48.640625 C 29.425781 -46.410156 29.6875 -43.570312 29.6875 -40.125 C 29.6875 -36.96875 29.273438 -34.503906 28.453125 -32.734375 C 27.628906 -30.960938 26.203125 -29.726562 24.171875 -29.03125 C 25.859375 -28.6875 27.078125 -27.84375 27.828125 -26.5 C 28.585938 -25.164062 28.96875 -23.351562 28.96875 -21.0625 L 28.84375 0 L 17.953125 0 L 17.953125 -21.78125 C 17.953125 -23.332031 17.648438 -24.320312 17.046875 -24.75 C 16.441406 -25.1875 15.335938 -25.40625 13.734375 -25.40625 L 13.734375 0 L 2.46875 0 Z M 16.46875 -35.0625 C 18.019531 -35.0625 18.796875 -36.75 18.796875 -40.125 C 18.796875 -41.59375 18.726562 -42.691406 18.59375 -43.421875 C 18.46875 -44.160156 18.234375 -44.671875 17.890625 -44.953125 C 17.546875 -45.234375 17.046875 -45.375 16.390625 -45.375 L 13.8125 -45.375 L 13.8125 -35.0625 Z M 16.46875 -35.0625 "/></g></g></g><g fill="#06336e" fill-opacity="1"><g transform="translate(228.403127, 179.445849)"><g/></g></g><g fill="#06336e" fill-opacity="1"><g transform="translate(243.567846, 179.445849)"><g><path d="M 2.46875 0 L 2.46875 -55.671875 L 13.546875 -55.671875 L 13.546875 -35.78125 L 18.796875 -35.78125 L 18.796875 -55.671875 L 29.875 -55.671875 L 29.875 0 L 18.796875 0 L 18.796875 -25.28125 L 13.546875 -25.28125 L 13.546875 0 Z M 2.46875 0 "/></g></g></g><g fill="#06336e" fill-opacity="1"><g transform="translate(275.906303, 179.445849)"><g><path d="M 2.46875 0 L 2.46875 -55.671875 L 24.765625 -55.671875 L 24.765625 -44.921875 L 13.8125 -44.921875 L 13.8125 -34.09375 L 24.296875 -34.09375 L 24.296875 -23.59375 L 13.8125 -23.59375 L 13.8125 -10.828125 L 25.46875 -10.828125 L 25.46875 0 Z M 2.46875 0 "/></g></g></g><g fill="#06336e" fill-opacity="1"><g transform="translate(302.606584, 179.445849)"><g><path d="M 2.46875 0 L 2.46875 -55.671875 L 24.765625 -55.671875 L 24.765625 -44.921875 L 13.8125 -44.921875 L 13.8125 -34.09375 L 24.296875 -34.09375 L 24.296875 -23.59375 L 13.8125 -23.59375 L 13.8125 -10.828125 L 25.46875 -10.828125 L 25.46875 0 Z M 2.46875 0 "/></g></g></g><g fill="#06336e" fill-opacity="1"><g transform="translate(329.306865, 179.445849)"><g><path d="M 2.46875 0 L 2.46875 -55.671875 L 13.609375 -55.671875 L 13.609375 -9.46875 L 25.078125 -9.46875 L 25.078125 0 Z M 2.46875 0 "/></g></g></g><g fill="#06336e" fill-opacity="1"><g transform="translate(140.395879, 214.836025)"><g><path d="M 15.84375 -10.078125 C 15.84375 -7.617188 15.515625 -5.65625 14.859375 -4.1875 C 14.203125 -2.71875 13.257812 -1.648438 12.03125 -0.984375 C 10.8125 -0.328125 9.34375 0 7.625 0 L 2.015625 0 L 2.015625 -21.234375 L 7.625 -21.234375 C 9.34375 -21.234375 10.8125 -20.90625 12.03125 -20.25 C 13.257812 -19.59375 14.203125 -18.523438 14.859375 -17.046875 C 15.515625 -15.566406 15.84375 -13.601562 15.84375 -11.15625 Z M 3.96875 -1.765625 L 7.453125 -1.765625 C 8.816406 -1.765625 9.972656 -2.035156 10.921875 -2.578125 C 11.878906 -3.128906 12.601562 -4.007812 13.09375 -5.21875 C 13.582031 -6.4375 13.828125 -8.054688 13.828125 -10.078125 L 13.828125 -11.15625 C 13.828125 -13.175781 13.582031 -14.789062 13.09375 -16 C 12.601562 -17.21875 11.878906 -18.097656 10.921875 -18.640625 C 9.972656 -19.191406 8.816406 -19.46875 7.453125 -19.46875 L 3.96875 -19.46875 Z M 3.96875 -1.765625 "/></g></g></g><g fill="#06336e" fill-opacity="1"><g transform="translate(165.691008, 214.836025)"><g><path d="M 2.015625 -21.234375 L 13.859375 -21.234375 L 13.859375 -19.46875 L 3.96875 -19.46875 L 3.96875 -11.703125 L 12.5 -11.703125 L 12.5 -9.96875 L 3.96875 -9.96875 L 3.96875 -1.765625 L 13.859375 -1.765625 L 13.859375 0 L 2.015625 0 Z M 2.015625 -21.234375 "/></g></g></g><g fill="#06336e" fill-opacity="1"><g transform="translate(188.535769, 214.836025)"><g><path d="M 9.71875 0.21875 L 6.90625 0.21875 L 0.796875 -21.234375 L 2.90625 -21.234375 L 8.296875 -1.9375 L 13.71875 -21.234375 L 15.84375 -21.234375 Z M 9.71875 0.21875 "/></g></g></g><g fill="#06336e" fill-opacity="1"><g transform="translate(213.068568, 214.836025)"><g/></g></g><g fill="#06336e" fill-opacity="1"><g transform="translate(226.411301, 214.836025)"><g><path d="M 7.84375 -10.078125 C 5.53125 -10.378906 3.894531 -11.019531 2.9375 -12 C 1.976562 -12.976562 1.5 -14.164062 1.5 -15.5625 L 1.5 -15.84375 C 1.5 -17.625 2.101562 -19.015625 3.3125 -20.015625 C 4.53125 -21.023438 6.148438 -21.53125 8.171875 -21.53125 C 10.546875 -21.53125 12.253906 -20.9375 13.296875 -19.75 C 14.335938 -18.570312 14.859375 -16.890625 14.859375 -14.703125 L 14.859375 -14.046875 L 12.90625 -14.046875 C 12.90625 -16.054688 12.53125 -17.507812 11.78125 -18.40625 C 11.039062 -19.3125 9.863281 -19.765625 8.25 -19.765625 L 8.0625 -19.765625 C 6.769531 -19.765625 5.6875 -19.4375 4.8125 -18.78125 C 3.945312 -18.125 3.515625 -17.226562 3.515625 -16.09375 L 3.515625 -15.875 C 3.515625 -15.125 3.660156 -14.472656 3.953125 -13.921875 C 4.253906 -13.367188 4.769531 -12.910156 5.5 -12.546875 C 6.238281 -12.179688 7.265625 -11.910156 8.578125 -11.734375 C 10.898438 -11.421875 12.566406 -10.785156 13.578125 -9.828125 C 14.597656 -8.878906 15.109375 -7.585938 15.109375 -5.953125 L 15.109375 -5.6875 C 15.109375 -3.820312 14.476562 -2.359375 13.21875 -1.296875 C 11.96875 -0.234375 10.285156 0.296875 8.171875 0.296875 C 5.921875 0.296875 4.203125 -0.304688 3.015625 -1.515625 C 1.835938 -2.734375 1.25 -4.441406 1.25 -6.640625 L 1.25 -6.90625 L 3.21875 -6.90625 C 3.21875 -5.039062 3.671875 -3.664062 4.578125 -2.78125 C 5.484375 -1.90625 6.648438 -1.46875 8.078125 -1.46875 L 8.28125 -1.46875 C 9.726562 -1.46875 10.890625 -1.828125 11.765625 -2.546875 C 12.648438 -3.265625 13.09375 -4.265625 13.09375 -5.546875 L 13.09375 -5.796875 C 13.09375 -7.046875 12.675781 -8.003906 11.84375 -8.671875 C 11.019531 -9.347656 9.6875 -9.816406 7.84375 -10.078125 Z M 7.84375 -10.078125 "/></g></g></g><g fill="#06336e" fill-opacity="1"><g transform="translate(250.671829, 214.836025)"><g><path d="M 7.96875 -19.46875 L 7.96875 0 L 6.015625 0 L 6.015625 -19.46875 L 0.625 -19.46875 L 0.625 -21.234375 L 13.390625 -21.234375 L 13.390625 -19.46875 Z M 7.96875 -19.46875 "/></g></g></g><g fill="#06336e" fill-opacity="1"><g transform="translate(272.590892, 214.836025)"><g><path d="M 8.6875 0.296875 C 7.175781 0.296875 5.914062 0.0820312 4.90625 -0.34375 C 3.90625 -0.78125 3.148438 -1.503906 2.640625 -2.515625 C 2.128906 -3.523438 1.875 -4.882812 1.875 -6.59375 L 1.875 -21.234375 L 3.84375 -21.234375 L 3.84375 -6.71875 C 3.84375 -5.375 4.019531 -4.320312 4.375 -3.5625 C 4.726562 -2.800781 5.257812 -2.257812 5.96875 -1.9375 C 6.6875 -1.625 7.59375 -1.46875 8.6875 -1.46875 C 9.769531 -1.46875 10.675781 -1.625 11.40625 -1.9375 C 12.132812 -2.257812 12.675781 -2.800781 13.03125 -3.5625 C 13.382812 -4.320312 13.5625 -5.375 13.5625 -6.71875 L 13.5625 -21.234375 L 15.515625 -21.234375 L 15.515625 -6.59375 C 15.515625 -4.882812 15.257812 -3.523438 14.75 -2.515625 C 14.238281 -1.503906 13.472656 -0.78125 12.453125 -0.34375 C 11.441406 0.0820312 10.1875 0.296875 8.6875 0.296875 Z M 8.6875 0.296875 "/></g></g></g><g fill="#06336e" fill-opacity="1"><g transform="translate(297.886021, 214.836025)"><g><path d="M 15.84375 -10.078125 C 15.84375 -7.617188 15.515625 -5.65625 14.859375 -4.1875 C 14.203125 -2.71875 13.257812 -1.648438 12.03125 -0.984375 C 10.8125 -0.328125 9.34375 0 7.625 0 L 2.015625 0 L 2.015625 -21.234375 L 7.625 -21.234375 C 9.34375 -21.234375 10.8125 -20.90625 12.03125 -20.25 C 13.257812 -19.59375 14.203125 -18.523438 14.859375 -17.046875 C 15.515625 -15.566406 15.84375 -13.601562 15.84375 -11.15625 Z M 3.96875 -1.765625 L 7.453125 -1.765625 C 8.816406 -1.765625 9.972656 -2.035156 10.921875 -2.578125 C 11.878906 -3.128906 12.601562 -4.007812 13.09375 -5.21875 C 13.582031 -6.4375 13.828125 -8.054688 13.828125 -10.078125 L 13.828125 -11.15625 C 13.828125 -13.175781 13.582031 -14.789062 13.09375 -16 C 12.601562 -17.21875 11.878906 -18.097656 10.921875 -18.640625 C 9.972656 -19.191406 8.816406 -19.46875 7.453125 -19.46875 L 3.96875 -19.46875 Z M 3.96875 -1.765625 "/></g></g></g><g fill="#06336e" fill-opacity="1"><g transform="translate(323.18115, 214.836025)"><g><path d="M 4.109375 -21.234375 L 4.109375 0 L 2.15625 0 L 2.15625 -21.234375 Z M 4.109375 -21.234375 "/></g></g></g><g fill="#06336e" fill-opacity="1"><g transform="translate(337.340677, 214.836025)"><g><path d="M 8.8125 0.296875 C 6.40625 0.296875 4.59375 -0.515625 3.375 -2.140625 C 2.15625 -3.765625 1.546875 -6.410156 1.546875 -10.078125 L 1.546875 -11.15625 C 1.546875 -14.84375 2.15625 -17.492188 3.375 -19.109375 C 4.59375 -20.722656 6.40625 -21.53125 8.8125 -21.53125 C 11.25 -21.53125 13.070312 -20.722656 14.28125 -19.109375 C 15.5 -17.492188 16.109375 -14.84375 16.109375 -11.15625 L 16.109375 -10.078125 C 16.109375 -6.410156 15.5 -3.765625 14.28125 -2.140625 C 13.070312 -0.515625 11.25 0.296875 8.8125 0.296875 Z M 8.734375 -1.46875 L 8.921875 -1.46875 C 10.703125 -1.46875 12.007812 -2.144531 12.84375 -3.5 C 13.675781 -4.863281 14.09375 -7.054688 14.09375 -10.078125 L 14.09375 -11.15625 C 14.09375 -14.1875 13.675781 -16.378906 12.84375 -17.734375 C 12.007812 -19.085938 10.703125 -19.765625 8.921875 -19.765625 L 8.734375 -19.765625 C 6.953125 -19.765625 5.644531 -19.085938 4.8125 -17.734375 C 3.976562 -16.378906 3.5625 -14.1875 3.5625 -11.15625 L 3.5625 -10.078125 C 3.5625 -7.054688 3.976562 -4.863281 4.8125 -3.5 C 5.644531 -2.144531 6.953125 -1.46875 8.734375 -1.46875 Z M 8.734375 -1.46875 "/></g></g></g><g clip-path="url(#ece9c77550)"><path fill="#06336e" d="M 78.21875 186.382812 C 77.714844 186.382812 77.378906 186.214844 77.042969 185.878906 L 70.316406 179.152344 C 69.644531 178.480469 69.644531 177.472656 70.316406 176.800781 L 77.042969 170.074219 C 77.714844 169.402344 78.722656 169.402344 79.394531 170.074219 C 80.066406 170.75 80.066406 171.757812 79.394531 172.429688 L 73.847656 177.976562 L 79.394531 183.523438 C 80.066406 184.195312 80.066406 185.207031 79.394531 185.878906 C 79.058594 186.214844 78.722656 186.382812 78.21875 186.382812 Z M 78.21875 186.382812 " fill-opacity="1" fill-rule="nonzero"/></g><g clip-path="url(#2d1ba3085f)"><path fill="#06336e" d="M 95.027344 186.382812 C 94.523438 186.382812 94.1875 186.214844 93.851562 185.878906 C 93.179688 185.207031 93.179688 184.195312 93.851562 183.523438 L 99.398438 177.976562 L 93.851562 172.429688 C 93.179688 171.757812 93.179688 170.75 93.851562 170.074219 C 94.523438 169.402344 95.53125 169.402344 96.207031 170.074219 L 102.929688 176.800781 C 103.601562 177.472656 103.601562 178.480469 102.929688 179.152344 L 96.207031 185.878906 C 95.867188 186.214844 95.53125 186.382812 95.027344 186.382812 Z M 95.027344 186.382812 " fill-opacity="1" fill-rule="nonzero"/></g><g clip-path="url(#7caddfc106)"><path fill="#06336e" d="M 83.261719 189.746094 C 83.09375 189.746094 82.925781 189.746094 82.757812 189.578125 C 81.917969 189.238281 81.410156 188.398438 81.746094 187.390625 L 88.472656 167.21875 C 88.808594 166.378906 89.648438 165.875 90.65625 166.210938 C 91.5 166.546875 92.003906 167.386719 91.667969 168.394531 L 84.941406 188.566406 C 84.605469 189.238281 83.933594 189.746094 83.261719 189.746094 Z M 83.261719 189.746094 " fill-opacity="1" fill-rule="nonzero"/></g></svg>