<svg xmlns="http://www.w3.org/2000/svg" xmlns:xlink="http://www.w3.org/1999/xlink" width="500" zoomAndPan="magnify" viewBox="0 0 375 374.999991" height="500" preserveAspectRatio="xMidYMid meet" version="1.0"><defs><g/><clipPath id="801acdf960"><path d="M 8.933594 122.121094 L 213 122.121094 L 213 260.398438 L 8.933594 260.398438 Z M 8.933594 122.121094 " clip-rule="nonzero"/></clipPath><clipPath id="56801281e8"><path d="M 71.933594 122.121094 L 149.636719 122.121094 C 166.34375 122.121094 182.371094 128.757812 194.183594 140.570312 C 206 152.386719 212.636719 168.410156 212.636719 185.121094 L 212.636719 197.398438 C 212.636719 214.105469 206 230.132812 194.183594 241.945312 C 182.371094 253.761719 166.34375 260.398438 149.636719 260.398438 L 71.933594 260.398438 C 55.226562 260.398438 39.203125 253.761719 27.386719 241.945312 C 15.574219 230.132812 8.933594 214.105469 8.933594 197.398438 L 8.933594 185.121094 C 8.933594 168.410156 15.574219 152.386719 27.386719 140.570312 C 39.203125 128.757812 55.226562 122.121094 71.933594 122.121094 Z M 71.933594 122.121094 " clip-rule="nonzero"/></clipPath><clipPath id="1c41006956"><path d="M 131.996094 114.601562 L 290.699219 114.601562 L 290.699219 260.398438 L 131.996094 260.398438 Z M 131.996094 114.601562 " clip-rule="nonzero"/></clipPath><clipPath id="f4b2cdacb3"><path d="M 124.476562 227.199219 L 361.707031 227.199219 L 361.707031 260.398438 L 124.476562 260.398438 Z M 124.476562 227.199219 " clip-rule="nonzero"/></clipPath></defs><g clip-path="url(#801acdf960)"><g clip-path="url(#56801281e8)"><path fill="#06336e" d="M 8.933594 122.121094 L 212.574219 122.121094 L 212.574219 260.398438 L 8.933594 260.398438 Z M 8.933594 122.121094 " fill-opacity="1" fill-rule="nonzero"/></g></g><g clip-path="url(#1c41006956)"><path fill="#ffffff" d="M 131.996094 114.601562 L 290.890625 114.601562 L 290.890625 260.398438 L 131.996094 260.398438 Z M 131.996094 114.601562 " fill-opacity="1" fill-rule="nonzero"/></g><g clip-path="url(#f4b2cdacb3)"><path fill="#06336e" d="M 124.476562 227.199219 L 361.675781 227.199219 L 361.675781 260.398438 L 124.476562 260.398438 Z M 124.476562 227.199219 " fill-opacity="1" fill-rule="nonzero"/></g><path fill="#aad4ff" d="M 68.835938 194.632812 C 51.941406 192.855469 54.777344 166.648438 68.390625 159.507812 C 77.410156 154.777344 89.585938 154.984375 97.738281 158.175781 C 113.199219 164.222656 117.300781 171.957031 119.523438 187.078125 C 121.746094 202.195312 114.296875 242.183594 96.402344 246.660156 C 80.398438 250.660156 74.222656 242.902344 75.949219 235.542969 C 77.730469 227.984375 86.496094 218.195312 87.066406 211.535156 C 88.402344 195.972656 68.835938 194.636719 68.835938 194.636719 Z M 68.835938 194.632812 " fill-opacity="1" fill-rule="nonzero"/><path fill="#aad4ff" d="M 38.730469 157.734375 C 43.253906 164.308594 51.84375 166.25 57.910156 162.074219 C 63.980469 157.894531 65.230469 149.179688 60.703125 142.605469 C 56.175781 136.03125 47.589844 134.089844 41.519531 138.269531 C 35.453125 142.445312 34.203125 151.160156 38.730469 157.734375 Z M 38.730469 157.734375 " fill-opacity="1" fill-rule="nonzero"/><path fill="#aad4ff" d="M 73.621094 153.59375 C 77.496094 154.253906 81.152344 151.75 81.792969 147.996094 C 82.429688 144.242188 79.957031 138.605469 76.085938 137.945312 C 72.210938 137.285156 68.554688 139.792969 67.914062 143.542969 C 67.277344 147.296875 69.75 152.9375 73.621094 153.59375 Z M 73.621094 153.59375 " fill-opacity="1" fill-rule="nonzero"/><path fill="#aad4ff" d="M 86.183594 150.886719 C 88.375 153.996094 91.589844 154.59375 94.800781 152.332031 C 98.011719 150.066406 98.765625 143.613281 96.574219 140.5 C 94.378906 137.390625 91.167969 136.789062 87.953125 139.054688 C 84.742188 141.320312 83.988281 147.773438 86.183594 150.886719 Z M 86.183594 150.886719 " fill-opacity="1" fill-rule="nonzero"/><path fill="#aad4ff" d="M 99.59375 153.222656 C 100.269531 156.46875 103.640625 158.515625 107.128906 157.789062 C 110.613281 157.066406 113.449219 152.144531 112.773438 148.898438 C 112.101562 145.652344 108.726562 143.605469 105.242188 144.332031 C 101.757812 145.054688 98.921875 149.976562 99.59375 153.222656 Z M 99.59375 153.222656 " fill-opacity="1" fill-rule="nonzero"/><path fill="#aad4ff" d="M 113.757812 157.871094 C 111.773438 160.828125 112.152344 164.558594 114.597656 166.199219 C 117.046875 167.839844 120.636719 166.773438 122.621094 163.8125 C 124.605469 160.855469 124.226562 157.128906 121.78125 155.488281 C 119.332031 153.847656 115.742188 154.914062 113.757812 157.871094 Z M 113.757812 157.871094 " fill-opacity="1" fill-rule="nonzero"/><g fill="#06336e" fill-opacity="1"><g transform="translate(137.887174, 179.445849)"><g><path d="M 7.265625 0 L 7.265625 -44.984375 L 0.640625 -44.984375 L 0.640625 -55.671875 L 25.015625 -55.671875 L 25.015625 -44.984375 L 18.40625 -44.984375 L 18.40625 0 Z M 7.265625 0 "/></g></g></g><g fill="#06336e" fill-opacity="1"><g transform="translate(163.550559, 179.445849)"><g><path d="M 0.96875 0 L 6.359375 -55.671875 L 25.21875 -55.671875 L 30.53125 0 L 19.96875 0 L 19.1875 -9.015625 L 12.4375 -9.015625 L 11.796875 0 Z M 13.28125 -17.890625 L 18.34375 -17.890625 L 15.875 -46.21875 L 15.359375 -46.21875 Z M 13.28125 -17.890625 "/></g></g></g><g fill="#06336e" fill-opacity="1"><g transform="translate(194.981715, 179.445849)"><g><path d="M 2.46875 -55.671875 L 19.578125 -55.671875 C 22.296875 -55.671875 24.398438 -55.054688 25.890625 -53.828125 C 27.378906 -52.597656 28.382812 -50.867188 28.90625 -48.640625 C 29.425781 -46.410156 29.6875 -43.570312 29.6875 -40.125 C 29.6875 -36.96875 29.273438 -34.503906 28.453125 -32.734375 C 27.628906 -30.960938 26.203125 -29.726562 24.171875 -29.03125 C 25.859375 -28.6875 27.078125 -27.84375 27.828125 -26.5 C 28.585938 -25.164062 28.96875 -23.351562 28.96875 -21.0625 L 28.84375 0 L 17.953125 0 L 17.953125 -21.78125 C 17.953125 -23.332031 17.648438 -24.320312 17.046875 -24.75 C 16.441406 -25.1875 15.335938 -25.40625 13.734375 -25.40625 L 13.734375 0 L 2.46875 0 Z M 16.46875 -35.0625 C 18.019531 -35.0625 18.796875 -36.75 18.796875 -40.125 C 18.796875 -41.59375 18.726562 -42.691406 18.59375 -43.421875 C 18.46875 -44.160156 18.234375 -44.671875 17.890625 -44.953125 C 17.546875 -45.234375 17.046875 -45.375 16.390625 -45.375 L 13.8125 -45.375 L 13.8125 -35.0625 Z M 16.46875 -35.0625 "/></g></g></g><g fill="#06336e" fill-opacity="1"><g transform="translate(225.894422, 179.445849)"><g/></g></g><g fill="#06336e" fill-opacity="1"><g transform="translate(241.059141, 179.445849)"><g><path d="M 2.46875 0 L 2.46875 -55.671875 L 13.546875 -55.671875 L 13.546875 -35.78125 L 18.796875 -35.78125 L 18.796875 -55.671875 L 29.875 -55.671875 L 29.875 0 L 18.796875 0 L 18.796875 -25.28125 L 13.546875 -25.28125 L 13.546875 0 Z M 2.46875 0 "/></g></g></g><g fill="#06336e" fill-opacity="1"><g transform="translate(273.397597, 179.445849)"><g><path d="M 2.46875 0 L 2.46875 -55.671875 L 24.765625 -55.671875 L 24.765625 -44.921875 L 13.8125 -44.921875 L 13.8125 -34.09375 L 24.296875 -34.09375 L 24.296875 -23.59375 L 13.8125 -23.59375 L 13.8125 -10.828125 L 25.46875 -10.828125 L 25.46875 0 Z M 2.46875 0 "/></g></g></g><g fill="#06336e" fill-opacity="1"><g transform="translate(300.097879, 179.445849)"><g><path d="M 2.46875 0 L 2.46875 -55.671875 L 24.765625 -55.671875 L 24.765625 -44.921875 L 13.8125 -44.921875 L 13.8125 -34.09375 L 24.296875 -34.09375 L 24.296875 -23.59375 L 13.8125 -23.59375 L 13.8125 -10.828125 L 25.46875 -10.828125 L 25.46875 0 Z M 2.46875 0 "/></g></g></g><g fill="#06336e" fill-opacity="1"><g transform="translate(326.79816, 179.445849)"><g><path d="M 2.46875 0 L 2.46875 -55.671875 L 13.609375 -55.671875 L 13.609375 -9.46875 L 25.078125 -9.46875 L 25.078125 0 Z M 2.46875 0 "/></g></g></g><g fill="#06336e" fill-opacity="1"><g transform="translate(137.887174, 214.836025)"><g><path d="M 15.84375 -10.078125 C 15.84375 -7.617188 15.515625 -5.65625 14.859375 -4.1875 C 14.203125 -2.71875 13.257812 -1.648438 12.03125 -0.984375 C 10.8125 -0.328125 9.34375 0 7.625 0 L 2.015625 0 L 2.015625 -21.234375 L 7.625 -21.234375 C 9.34375 -21.234375 10.8125 -20.90625 12.03125 -20.25 C 13.257812 -19.59375 14.203125 -18.523438 14.859375 -17.046875 C 15.515625 -15.566406 15.84375 -13.601562 15.84375 -11.15625 Z M 3.96875 -1.765625 L 7.453125 -1.765625 C 8.816406 -1.765625 9.972656 -2.035156 10.921875 -2.578125 C 11.878906 -3.128906 12.601562 -4.007812 13.09375 -5.21875 C 13.582031 -6.4375 13.828125 -8.054688 13.828125 -10.078125 L 13.828125 -11.15625 C 13.828125 -13.175781 13.582031 -14.789062 13.09375 -16 C 12.601562 -17.21875 11.878906 -18.097656 10.921875 -18.640625 C 9.972656 -19.191406 8.816406 -19.46875 7.453125 -19.46875 L 3.96875 -19.46875 Z M 3.96875 -1.765625 "/></g></g></g><g fill="#06336e" fill-opacity="1"><g transform="translate(163.182303, 214.836025)"><g><path d="M 2.015625 -21.234375 L 13.859375 -21.234375 L 13.859375 -19.46875 L 3.96875 -19.46875 L 3.96875 -11.703125 L 12.5 -11.703125 L 12.5 -9.96875 L 3.96875 -9.96875 L 3.96875 -1.765625 L 13.859375 -1.765625 L 13.859375 0 L 2.015625 0 Z M 2.015625 -21.234375 "/></g></g></g><g fill="#06336e" fill-opacity="1"><g transform="translate(186.027063, 214.836025)"><g><path d="M 9.71875 0.21875 L 6.90625 0.21875 L 0.796875 -21.234375 L 2.90625 -21.234375 L 8.296875 -1.9375 L 13.71875 -21.234375 L 15.84375 -21.234375 Z M 9.71875 0.21875 "/></g></g></g><g fill="#06336e" fill-opacity="1"><g transform="translate(210.559863, 214.836025)"><g/></g></g><g fill="#06336e" fill-opacity="1"><g transform="translate(223.902596, 214.836025)"><g><path d="M 7.84375 -10.078125 C 5.53125 -10.378906 3.894531 -11.019531 2.9375 -12 C 1.976562 -12.976562 1.5 -14.164062 1.5 -15.5625 L 1.5 -15.84375 C 1.5 -17.625 2.101562 -19.015625 3.3125 -20.015625 C 4.53125 -21.023438 6.148438 -21.53125 8.171875 -21.53125 C 10.546875 -21.53125 12.253906 -20.9375 13.296875 -19.75 C 14.335938 -18.570312 14.859375 -16.890625 14.859375 -14.703125 L 14.859375 -14.046875 L 12.90625 -14.046875 C 12.90625 -16.054688 12.53125 -17.507812 11.78125 -18.40625 C 11.039062 -19.3125 9.863281 -19.765625 8.25 -19.765625 L 8.0625 -19.765625 C 6.769531 -19.765625 5.6875 -19.4375 4.8125 -18.78125 C 3.945312 -18.125 3.515625 -17.226562 3.515625 -16.09375 L 3.515625 -15.875 C 3.515625 -15.125 3.660156 -14.472656 3.953125 -13.921875 C 4.253906 -13.367188 4.769531 -12.910156 5.5 -12.546875 C 6.238281 -12.179688 7.265625 -11.910156 8.578125 -11.734375 C 10.898438 -11.421875 12.566406 -10.785156 13.578125 -9.828125 C 14.597656 -8.878906 15.109375 -7.585938 15.109375 -5.953125 L 15.109375 -5.6875 C 15.109375 -3.820312 14.476562 -2.359375 13.21875 -1.296875 C 11.96875 -0.234375 10.285156 0.296875 8.171875 0.296875 C 5.921875 0.296875 4.203125 -0.304688 3.015625 -1.515625 C 1.835938 -2.734375 1.25 -4.441406 1.25 -6.640625 L 1.25 -6.90625 L 3.21875 -6.90625 C 3.21875 -5.039062 3.671875 -3.664062 4.578125 -2.78125 C 5.484375 -1.90625 6.648438 -1.46875 8.078125 -1.46875 L 8.28125 -1.46875 C 9.726562 -1.46875 10.890625 -1.828125 11.765625 -2.546875 C 12.648438 -3.265625 13.09375 -4.265625 13.09375 -5.546875 L 13.09375 -5.796875 C 13.09375 -7.046875 12.675781 -8.003906 11.84375 -8.671875 C 11.019531 -9.347656 9.6875 -9.816406 7.84375 -10.078125 Z M 7.84375 -10.078125 "/></g></g></g><g fill="#06336e" fill-opacity="1"><g transform="translate(248.163123, 214.836025)"><g><path d="M 7.96875 -19.46875 L 7.96875 0 L 6.015625 0 L 6.015625 -19.46875 L 0.625 -19.46875 L 0.625 -21.234375 L 13.390625 -21.234375 L 13.390625 -19.46875 Z M 7.96875 -19.46875 "/></g></g></g><g fill="#06336e" fill-opacity="1"><g transform="translate(270.082186, 214.836025)"><g><path d="M 8.6875 0.296875 C 7.175781 0.296875 5.914062 0.0820312 4.90625 -0.34375 C 3.90625 -0.78125 3.148438 -1.503906 2.640625 -2.515625 C 2.128906 -3.523438 1.875 -4.882812 1.875 -6.59375 L 1.875 -21.234375 L 3.84375 -21.234375 L 3.84375 -6.71875 C 3.84375 -5.375 4.019531 -4.320312 4.375 -3.5625 C 4.726562 -2.800781 5.257812 -2.257812 5.96875 -1.9375 C 6.6875 -1.625 7.59375 -1.46875 8.6875 -1.46875 C 9.769531 -1.46875 10.675781 -1.625 11.40625 -1.9375 C 12.132812 -2.257812 12.675781 -2.800781 13.03125 -3.5625 C 13.382812 -4.320312 13.5625 -5.375 13.5625 -6.71875 L 13.5625 -21.234375 L 15.515625 -21.234375 L 15.515625 -6.59375 C 15.515625 -4.882812 15.257812 -3.523438 14.75 -2.515625 C 14.238281 -1.503906 13.472656 -0.78125 12.453125 -0.34375 C 11.441406 0.0820312 10.1875 0.296875 8.6875 0.296875 Z M 8.6875 0.296875 "/></g></g></g><g fill="#06336e" fill-opacity="1"><g transform="translate(295.377315, 214.836025)"><g><path d="M 15.84375 -10.078125 C 15.84375 -7.617188 15.515625 -5.65625 14.859375 -4.1875 C 14.203125 -2.71875 13.257812 -1.648438 12.03125 -0.984375 C 10.8125 -0.328125 9.34375 0 7.625 0 L 2.015625 0 L 2.015625 -21.234375 L 7.625 -21.234375 C 9.34375 -21.234375 10.8125 -20.90625 12.03125 -20.25 C 13.257812 -19.59375 14.203125 -18.523438 14.859375 -17.046875 C 15.515625 -15.566406 15.84375 -13.601562 15.84375 -11.15625 Z M 3.96875 -1.765625 L 7.453125 -1.765625 C 8.816406 -1.765625 9.972656 -2.035156 10.921875 -2.578125 C 11.878906 -3.128906 12.601562 -4.007812 13.09375 -5.21875 C 13.582031 -6.4375 13.828125 -8.054688 13.828125 -10.078125 L 13.828125 -11.15625 C 13.828125 -13.175781 13.582031 -14.789062 13.09375 -16 C 12.601562 -17.21875 11.878906 -18.097656 10.921875 -18.640625 C 9.972656 -19.191406 8.816406 -19.46875 7.453125 -19.46875 L 3.96875 -19.46875 Z M 3.96875 -1.765625 "/></g></g></g><g fill="#06336e" fill-opacity="1"><g transform="translate(320.672445, 214.836025)"><g><path d="M 4.109375 -21.234375 L 4.109375 0 L 2.15625 0 L 2.15625 -21.234375 Z M 4.109375 -21.234375 "/></g></g></g><g fill="#06336e" fill-opacity="1"><g transform="translate(334.831971, 214.836025)"><g><path d="M 8.8125 0.296875 C 6.40625 0.296875 4.59375 -0.515625 3.375 -2.140625 C 2.15625 -3.765625 1.546875 -6.410156 1.546875 -10.078125 L 1.546875 -11.15625 C 1.546875 -14.84375 2.15625 -17.492188 3.375 -19.109375 C 4.59375 -20.722656 6.40625 -21.53125 8.8125 -21.53125 C 11.25 -21.53125 13.070312 -20.722656 14.28125 -19.109375 C 15.5 -17.492188 16.109375 -14.84375 16.109375 -11.15625 L 16.109375 -10.078125 C 16.109375 -6.410156 15.5 -3.765625 14.28125 -2.140625 C 13.070312 -0.515625 11.25 0.296875 8.8125 0.296875 Z M 8.734375 -1.46875 L 8.921875 -1.46875 C 10.703125 -1.46875 12.007812 -2.144531 12.84375 -3.5 C 13.675781 -4.863281 14.09375 -7.054688 14.09375 -10.078125 L 14.09375 -11.15625 C 14.09375 -14.1875 13.675781 -16.378906 12.84375 -17.734375 C 12.007812 -19.085938 10.703125 -19.765625 8.921875 -19.765625 L 8.734375 -19.765625 C 6.953125 -19.765625 5.644531 -19.085938 4.8125 -17.734375 C 3.976562 -16.378906 3.5625 -14.1875 3.5625 -11.15625 L 3.5625 -10.078125 C 3.5625 -7.054688 3.976562 -4.863281 4.8125 -3.5 C 5.644531 -2.144531 6.953125 -1.46875 8.734375 -1.46875 Z M 8.734375 -1.46875 "/></g></g></g></svg>