<svg xmlns="http://www.w3.org/2000/svg" xmlns:xlink="http://www.w3.org/1999/xlink" width="500" zoomAndPan="magnify" viewBox="0 0 375 374.999991" height="500" preserveAspectRatio="xMidYMid meet" version="1.0"><defs><g/><clipPath id="4c407426d9"><path d="M 85.109375 114.601562 L 135.894531 114.601562 L 135.894531 260.417969 L 85.109375 260.417969 Z M 85.109375 114.601562 " clip-rule="nonzero"/></clipPath><clipPath id="f061573b02"><path d="M 93.042969 114.601562 L 127.960938 114.601562 C 132.34375 114.601562 135.894531 118.15625 135.894531 122.539062 L 135.894531 252.460938 C 135.894531 256.84375 132.34375 260.398438 127.960938 260.398438 L 93.042969 260.398438 C 88.660156 260.398438 85.109375 256.84375 85.109375 252.460938 L 85.109375 122.539062 C 85.109375 118.15625 88.660156 114.601562 93.042969 114.601562 Z M 93.042969 114.601562 " clip-rule="nonzero"/></clipPath><clipPath id="d62e769586"><path d="M 122.488281 227.199219 L 359.71875 227.199219 L 359.71875 260.398438 L 122.488281 260.398438 Z M 122.488281 227.199219 " clip-rule="nonzero"/></clipPath><clipPath id="919f1758df"><path d="M 9.433594 114.894531 L 95.683594 114.894531 L 95.683594 260.394531 L 9.433594 260.394531 Z M 9.433594 114.894531 " clip-rule="nonzero"/></clipPath><clipPath id="cbc06dc3ab"><path d="M 69.574219 169 L 80 169 L 80 187 L 69.574219 187 Z M 69.574219 169 " clip-rule="nonzero"/></clipPath><clipPath id="d03011902c"><path d="M 93 169 L 103.324219 169 L 103.324219 187 L 93 187 Z M 93 169 " clip-rule="nonzero"/></clipPath><clipPath id="a118d90d60"><path d="M 81 166 L 92 166 L 92 189.875 L 81 189.875 Z M 81 166 " clip-rule="nonzero"/></clipPath></defs><g clip-path="url(#4c407426d9)"><g clip-path="url(#f061573b02)"><path fill="#aad4ff" d="M 85.109375 114.601562 L 135.894531 114.601562 L 135.894531 260.417969 L 85.109375 260.417969 Z M 85.109375 114.601562 " fill-opacity="1" fill-rule="nonzero"/></g></g><g clip-path="url(#d62e769586)"><path fill="#aad4ff" d="M 122.488281 227.199219 L 359.6875 227.199219 L 359.6875 260.398438 L 122.488281 260.398438 Z M 122.488281 227.199219 " fill-opacity="1" fill-rule="nonzero"/></g><g clip-path="url(#919f1758df)"><path fill="#aad4ff" d="M 81.9375 114.648438 L 93.316406 114.648438 C 93.648438 114.644531 93.96875 114.707031 94.273438 114.835938 C 94.582031 114.960938 94.851562 115.140625 95.085938 115.375 C 95.320312 115.609375 95.5 115.882812 95.628906 116.1875 C 95.753906 116.496094 95.816406 116.8125 95.8125 117.144531 L 95.8125 257.847656 C 95.816406 258.179688 95.753906 258.5 95.628906 258.804688 C 95.5 259.113281 95.320312 259.382812 95.085938 259.617188 C 94.851562 259.851562 94.582031 260.03125 94.273438 260.160156 C 93.96875 260.285156 93.648438 260.347656 93.316406 260.347656 L 81.9375 260.347656 C 80.746094 260.347656 79.554688 260.316406 78.363281 260.257812 C 77.171875 260.199219 75.984375 260.113281 74.796875 259.996094 C 73.609375 259.878906 72.429688 259.734375 71.25 259.558594 C 70.070312 259.382812 68.894531 259.179688 67.726562 258.945312 C 66.554688 258.714844 65.394531 258.453125 64.238281 258.164062 C 63.082031 257.875 61.933594 257.554688 60.789062 257.210938 C 59.648438 256.863281 58.519531 256.488281 57.394531 256.089844 C 56.273438 255.6875 55.160156 255.257812 54.058594 254.800781 C 52.957031 254.34375 51.867188 253.863281 50.789062 253.351562 C 49.714844 252.84375 48.648438 252.308594 47.597656 251.746094 C 46.546875 251.183594 45.507812 250.59375 44.484375 249.980469 C 43.464844 249.371094 42.457031 248.730469 41.464844 248.070312 C 40.472656 247.40625 39.5 246.722656 38.542969 246.011719 C 37.585938 245.300781 36.644531 244.566406 35.722656 243.8125 C 34.800781 243.054688 33.898438 242.277344 33.015625 241.476562 C 32.132812 240.675781 31.269531 239.851562 30.425781 239.007812 C 29.582031 238.167969 28.761719 237.304688 27.960938 236.421875 C 27.160156 235.535156 26.382812 234.632812 25.625 233.710938 C 24.867188 232.789062 24.136719 231.851562 23.425781 230.894531 C 22.714844 229.9375 22.027344 228.960938 21.367188 227.96875 C 20.703125 226.980469 20.066406 225.972656 19.453125 224.949219 C 18.839844 223.925781 18.253906 222.890625 17.691406 221.839844 C 17.128906 220.785156 16.59375 219.722656 16.082031 218.644531 C 15.574219 217.566406 15.089844 216.476562 14.632812 215.375 C 14.175781 214.273438 13.75 213.160156 13.347656 212.039062 C 12.945312 210.917969 12.570312 209.785156 12.226562 208.644531 C 11.878906 207.503906 11.5625 206.355469 11.273438 205.199219 C 10.980469 204.042969 10.722656 202.878906 10.488281 201.710938 C 10.253906 200.539062 10.050781 199.367188 9.878906 198.1875 C 9.703125 197.007812 9.554688 195.824219 9.4375 194.636719 C 9.324219 193.449219 9.234375 192.261719 9.175781 191.070312 C 9.117188 189.882812 9.089844 188.6875 9.089844 187.496094 C 9.089844 186.304688 9.117188 185.113281 9.175781 183.921875 C 9.234375 182.730469 9.324219 181.542969 9.4375 180.355469 C 9.554688 179.171875 9.703125 177.988281 9.878906 176.808594 C 10.050781 175.628906 10.253906 174.453125 10.488281 173.285156 C 10.722656 172.117188 10.980469 170.953125 11.273438 169.796875 C 11.5625 168.640625 11.878906 167.492188 12.226562 166.351562 C 12.570312 165.210938 12.945312 164.078125 13.347656 162.953125 C 13.75 161.832031 14.175781 160.71875 14.632812 159.617188 C 15.089844 158.515625 15.574219 157.425781 16.082031 156.351562 C 16.59375 155.273438 17.128906 154.207031 17.691406 153.15625 C 18.253906 152.105469 18.839844 151.066406 19.453125 150.042969 C 20.066406 149.023438 20.703125 148.015625 21.367188 147.023438 C 22.027344 146.03125 22.714844 145.058594 23.425781 144.101562 C 24.136719 143.144531 24.867188 142.203125 25.625 141.28125 C 26.382812 140.359375 27.160156 139.457031 27.960938 138.574219 C 28.761719 137.691406 29.582031 136.828125 30.425781 135.984375 C 31.269531 135.140625 32.132812 134.320312 33.015625 133.519531 C 33.898438 132.71875 34.800781 131.941406 35.722656 131.183594 C 36.644531 130.425781 37.585938 129.695312 38.542969 128.984375 C 39.5 128.273438 40.472656 127.585938 41.464844 126.925781 C 42.457031 126.261719 43.464844 125.625 44.484375 125.011719 C 45.507812 124.398438 46.546875 123.8125 47.597656 123.25 C 48.648438 122.6875 49.714844 122.152344 50.789062 121.640625 C 51.867188 121.132812 52.957031 120.648438 54.058594 120.191406 C 55.160156 119.738281 56.273438 119.308594 57.394531 118.90625 C 58.519531 118.503906 59.648438 118.128906 60.789062 117.785156 C 61.933594 117.4375 63.082031 117.121094 64.238281 116.832031 C 65.394531 116.539062 66.554688 116.28125 67.726562 116.046875 C 68.894531 115.816406 70.070312 115.609375 71.25 115.4375 C 72.429688 115.261719 73.609375 115.113281 74.796875 115 C 75.984375 114.882812 77.171875 114.792969 78.363281 114.734375 C 79.554688 114.675781 80.746094 114.648438 81.9375 114.648438 Z M 81.9375 114.648438 " fill-opacity="1" fill-rule="nonzero"/></g><path fill="#ffffff" d="M 66.769531 194.503906 C 49.910156 192.726562 52.742188 166.578125 66.328125 159.453125 C 75.328125 154.734375 87.476562 154.941406 95.609375 158.121094 C 111.035156 164.160156 115.132812 171.875 117.347656 186.960938 C 119.566406 202.046875 112.132812 241.949219 94.277344 246.414062 C 78.308594 250.40625 72.144531 242.664062 73.871094 235.324219 C 75.644531 227.78125 84.390625 218.007812 84.960938 211.363281 C 86.292969 195.835938 66.769531 194.503906 66.769531 194.503906 Z M 66.769531 194.503906 " fill-opacity="1" fill-rule="nonzero"/><path fill="#ffffff" d="M 36.730469 157.683594 C 41.246094 164.242188 49.8125 166.179688 55.867188 162.011719 C 61.921875 157.84375 63.171875 149.144531 58.65625 142.585938 C 54.136719 136.027344 45.570312 134.089844 39.515625 138.257812 C 33.460938 142.425781 32.210938 151.125 36.730469 157.683594 Z M 36.730469 157.683594 " fill-opacity="1" fill-rule="nonzero"/><path fill="#ffffff" d="M 71.546875 153.554688 C 75.410156 154.210938 79.0625 151.710938 79.699219 147.964844 C 80.335938 144.222656 77.867188 138.59375 74.003906 137.9375 C 70.140625 137.277344 66.488281 139.777344 65.851562 143.523438 C 65.214844 147.265625 67.679688 152.894531 71.546875 153.554688 Z M 71.546875 153.554688 " fill-opacity="1" fill-rule="nonzero"/><path fill="#ffffff" d="M 84.078125 150.847656 C 86.265625 153.953125 89.472656 154.550781 92.679688 152.292969 C 95.882812 150.03125 96.636719 143.589844 94.449219 140.484375 C 92.257812 137.382812 89.050781 136.785156 85.847656 139.042969 C 82.644531 141.304688 81.890625 147.746094 84.078125 150.847656 Z M 84.078125 150.847656 " fill-opacity="1" fill-rule="nonzero"/><path fill="#ffffff" d="M 97.464844 153.179688 C 98.136719 156.421875 101.5 158.460938 104.980469 157.738281 C 108.457031 157.015625 111.285156 152.105469 110.613281 148.867188 C 109.941406 145.625 106.578125 143.585938 103.097656 144.308594 C 99.621094 145.03125 96.792969 149.941406 97.464844 153.179688 Z M 97.464844 153.179688 " fill-opacity="1" fill-rule="nonzero"/><path fill="#ffffff" d="M 111.597656 157.820312 C 109.617188 160.769531 109.992188 164.492188 112.4375 166.128906 C 114.878906 167.765625 118.460938 166.699219 120.441406 163.75 C 122.417969 160.796875 122.042969 157.078125 119.601562 155.441406 C 117.15625 153.804688 113.574219 154.867188 111.597656 157.820312 Z M 111.597656 157.820312 " fill-opacity="1" fill-rule="nonzero"/><g fill="#aad4ff" fill-opacity="1"><g transform="translate(140.395879, 178.620384)"><g><path d="M 7.265625 0 L 7.265625 -44.984375 L 0.640625 -44.984375 L 0.640625 -55.671875 L 25.015625 -55.671875 L 25.015625 -44.984375 L 18.40625 -44.984375 L 18.40625 0 Z M 7.265625 0 "/></g></g></g><g fill="#aad4ff" fill-opacity="1"><g transform="translate(166.058532, 178.620384)"><g><path d="M 0.96875 0 L 6.359375 -55.671875 L 25.21875 -55.671875 L 30.53125 0 L 19.96875 0 L 19.1875 -9.015625 L 12.4375 -9.015625 L 11.796875 0 Z M 13.28125 -17.890625 L 18.34375 -17.890625 L 15.875 -46.21875 L 15.359375 -46.21875 Z M 13.28125 -17.890625 "/></g></g></g><g fill="#aad4ff" fill-opacity="1"><g transform="translate(197.488801, 178.620384)"><g><path d="M 2.46875 -55.671875 L 19.578125 -55.671875 C 22.296875 -55.671875 24.398438 -55.054688 25.890625 -53.828125 C 27.378906 -52.597656 28.382812 -50.867188 28.90625 -48.640625 C 29.425781 -46.410156 29.6875 -43.570312 29.6875 -40.125 C 29.6875 -36.96875 29.273438 -34.503906 28.453125 -32.734375 C 27.628906 -30.960938 26.203125 -29.726562 24.171875 -29.03125 C 25.859375 -28.6875 27.078125 -27.84375 27.828125 -26.5 C 28.585938 -25.164062 28.96875 -23.351562 28.96875 -21.0625 L 28.84375 0 L 17.953125 0 L 17.953125 -21.78125 C 17.953125 -23.332031 17.648438 -24.320312 17.046875 -24.75 C 16.441406 -25.1875 15.335938 -25.40625 13.734375 -25.40625 L 13.734375 0 L 2.46875 0 Z M 16.46875 -35.0625 C 18.019531 -35.0625 18.796875 -36.75 18.796875 -40.125 C 18.796875 -41.59375 18.726562 -42.691406 18.59375 -43.421875 C 18.46875 -44.160156 18.234375 -44.671875 17.890625 -44.953125 C 17.546875 -45.234375 17.046875 -45.375 16.390625 -45.375 L 13.8125 -45.375 L 13.8125 -35.0625 Z M 16.46875 -35.0625 "/></g></g></g><g fill="#aad4ff" fill-opacity="1"><g transform="translate(228.400631, 178.620384)"><g/></g></g><g fill="#aad4ff" fill-opacity="1"><g transform="translate(243.564921, 178.620384)"><g><path d="M 2.46875 0 L 2.46875 -55.671875 L 13.546875 -55.671875 L 13.546875 -35.78125 L 18.796875 -35.78125 L 18.796875 -55.671875 L 29.875 -55.671875 L 29.875 0 L 18.796875 0 L 18.796875 -25.28125 L 13.546875 -25.28125 L 13.546875 0 Z M 2.46875 0 "/></g></g></g><g fill="#aad4ff" fill-opacity="1"><g transform="translate(275.902454, 178.620384)"><g><path d="M 2.46875 0 L 2.46875 -55.671875 L 24.765625 -55.671875 L 24.765625 -44.921875 L 13.8125 -44.921875 L 13.8125 -34.09375 L 24.296875 -34.09375 L 24.296875 -23.59375 L 13.8125 -23.59375 L 13.8125 -10.828125 L 25.46875 -10.828125 L 25.46875 0 Z M 2.46875 0 "/></g></g></g><g fill="#aad4ff" fill-opacity="1"><g transform="translate(302.601976, 178.620384)"><g><path d="M 2.46875 0 L 2.46875 -55.671875 L 24.765625 -55.671875 L 24.765625 -44.921875 L 13.8125 -44.921875 L 13.8125 -34.09375 L 24.296875 -34.09375 L 24.296875 -23.59375 L 13.8125 -23.59375 L 13.8125 -10.828125 L 25.46875 -10.828125 L 25.46875 0 Z M 2.46875 0 "/></g></g></g><g fill="#aad4ff" fill-opacity="1"><g transform="translate(329.301498, 178.620384)"><g><path d="M 2.46875 0 L 2.46875 -55.671875 L 13.609375 -55.671875 L 13.609375 -9.46875 L 25.078125 -9.46875 L 25.078125 0 Z M 2.46875 0 "/></g></g></g><g fill="#aad4ff" fill-opacity="1"><g transform="translate(140.395879, 214.276992)"><g><path d="M 15.84375 -10.078125 C 15.84375 -7.628906 15.515625 -5.664062 14.859375 -4.1875 C 14.210938 -2.71875 13.273438 -1.648438 12.046875 -0.984375 C 10.828125 -0.328125 9.351562 0 7.625 0 L 2.015625 0 L 2.015625 -21.25 L 7.625 -21.25 C 9.351562 -21.25 10.828125 -20.921875 12.046875 -20.265625 C 13.273438 -19.609375 14.210938 -18.539062 14.859375 -17.0625 C 15.515625 -15.582031 15.84375 -13.617188 15.84375 -11.171875 Z M 3.96875 -1.765625 L 7.46875 -1.765625 C 8.820312 -1.765625 9.972656 -2.035156 10.921875 -2.578125 C 11.878906 -3.128906 12.601562 -4.007812 13.09375 -5.21875 C 13.582031 -6.4375 13.828125 -8.054688 13.828125 -10.078125 L 13.828125 -11.171875 C 13.828125 -13.179688 13.582031 -14.796875 13.09375 -16.015625 C 12.601562 -17.234375 11.878906 -18.113281 10.921875 -18.65625 C 9.972656 -19.195312 8.820312 -19.46875 7.46875 -19.46875 L 3.96875 -19.46875 Z M 3.96875 -1.765625 "/></g></g></g><g fill="#aad4ff" fill-opacity="1"><g transform="translate(165.688585, 214.276992)"><g><path d="M 2.015625 -21.25 L 13.859375 -21.25 L 13.859375 -19.46875 L 3.96875 -19.46875 L 3.96875 -11.703125 L 12.5 -11.703125 L 12.5 -9.96875 L 3.96875 -9.96875 L 3.96875 -1.765625 L 13.859375 -1.765625 L 13.859375 0 L 2.015625 0 Z M 2.015625 -21.25 "/></g></g></g><g fill="#aad4ff" fill-opacity="1"><g transform="translate(188.53126, 214.276992)"><g><path d="M 9.71875 0.21875 L 6.921875 0.21875 L 0.796875 -21.25 L 2.921875 -21.25 L 8.3125 -1.9375 L 13.71875 -21.25 L 15.84375 -21.25 Z M 9.71875 0.21875 "/></g></g></g><g fill="#aad4ff" fill-opacity="1"><g transform="translate(213.061732, 214.276992)"><g/></g></g><g fill="#aad4ff" fill-opacity="1"><g transform="translate(226.403705, 214.276992)"><g><path d="M 7.84375 -10.078125 C 5.539062 -10.390625 3.90625 -11.035156 2.9375 -12.015625 C 1.976562 -12.992188 1.5 -14.179688 1.5 -15.578125 L 1.5 -15.84375 C 1.5 -17.625 2.101562 -19.019531 3.3125 -20.03125 C 4.53125 -21.039062 6.148438 -21.546875 8.171875 -21.546875 C 10.546875 -21.546875 12.253906 -20.953125 13.296875 -19.765625 C 14.347656 -18.585938 14.875 -16.898438 14.875 -14.703125 L 14.875 -14.046875 L 12.90625 -14.046875 C 12.90625 -16.066406 12.53125 -17.523438 11.78125 -18.421875 C 11.039062 -19.316406 9.863281 -19.765625 8.25 -19.765625 L 8.0625 -19.765625 C 6.769531 -19.765625 5.6875 -19.4375 4.8125 -18.78125 C 3.945312 -18.132812 3.515625 -17.238281 3.515625 -16.09375 L 3.515625 -15.875 C 3.515625 -15.132812 3.660156 -14.484375 3.953125 -13.921875 C 4.253906 -13.367188 4.773438 -12.910156 5.515625 -12.546875 C 6.253906 -12.191406 7.273438 -11.921875 8.578125 -11.734375 C 10.898438 -11.429688 12.566406 -10.800781 13.578125 -9.84375 C 14.597656 -8.894531 15.109375 -7.601562 15.109375 -5.96875 L 15.109375 -5.6875 C 15.109375 -3.820312 14.484375 -2.359375 13.234375 -1.296875 C 11.984375 -0.234375 10.296875 0.296875 8.171875 0.296875 C 5.921875 0.296875 4.203125 -0.304688 3.015625 -1.515625 C 1.835938 -2.734375 1.25 -4.441406 1.25 -6.640625 L 1.25 -6.921875 L 3.21875 -6.921875 C 3.21875 -5.046875 3.671875 -3.664062 4.578125 -2.78125 C 5.484375 -1.90625 6.65625 -1.46875 8.09375 -1.46875 L 8.28125 -1.46875 C 9.726562 -1.46875 10.890625 -1.828125 11.765625 -2.546875 C 12.648438 -3.265625 13.09375 -4.269531 13.09375 -5.5625 L 13.09375 -5.796875 C 13.09375 -7.054688 12.679688 -8.019531 11.859375 -8.6875 C 11.035156 -9.363281 9.695312 -9.828125 7.84375 -10.078125 Z M 7.84375 -10.078125 "/></g></g></g><g fill="#aad4ff" fill-opacity="1"><g transform="translate(250.661963, 214.276992)"><g><path d="M 7.984375 -19.46875 L 7.984375 0 L 6.015625 0 L 6.015625 -19.46875 L 0.625 -19.46875 L 0.625 -21.25 L 13.40625 -21.25 L 13.40625 -19.46875 Z M 7.984375 -19.46875 "/></g></g></g><g fill="#aad4ff" fill-opacity="1"><g transform="translate(272.579068, 214.276992)"><g><path d="M 8.6875 0.296875 C 7.175781 0.296875 5.914062 0.0820312 4.90625 -0.34375 C 3.90625 -0.78125 3.148438 -1.503906 2.640625 -2.515625 C 2.128906 -3.523438 1.875 -4.882812 1.875 -6.59375 L 1.875 -21.25 L 3.84375 -21.25 L 3.84375 -6.734375 C 3.84375 -5.390625 4.019531 -4.332031 4.375 -3.5625 C 4.726562 -2.800781 5.257812 -2.257812 5.96875 -1.9375 C 6.6875 -1.625 7.59375 -1.46875 8.6875 -1.46875 C 9.78125 -1.46875 10.6875 -1.625 11.40625 -1.9375 C 12.132812 -2.257812 12.675781 -2.800781 13.03125 -3.5625 C 13.382812 -4.332031 13.5625 -5.390625 13.5625 -6.734375 L 13.5625 -21.25 L 15.53125 -21.25 L 15.53125 -6.59375 C 15.53125 -4.882812 15.273438 -3.523438 14.765625 -2.515625 C 14.253906 -1.503906 13.488281 -0.78125 12.46875 -0.34375 C 11.457031 0.0820312 10.195312 0.296875 8.6875 0.296875 Z M 8.6875 0.296875 "/></g></g></g><g fill="#aad4ff" fill-opacity="1"><g transform="translate(297.871768, 214.276992)"><g><path d="M 15.84375 -10.078125 C 15.84375 -7.628906 15.515625 -5.664062 14.859375 -4.1875 C 14.210938 -2.71875 13.273438 -1.648438 12.046875 -0.984375 C 10.828125 -0.328125 9.351562 0 7.625 0 L 2.015625 0 L 2.015625 -21.25 L 7.625 -21.25 C 9.351562 -21.25 10.828125 -20.921875 12.046875 -20.265625 C 13.273438 -19.609375 14.210938 -18.539062 14.859375 -17.0625 C 15.515625 -15.582031 15.84375 -13.617188 15.84375 -11.171875 Z M 3.96875 -1.765625 L 7.46875 -1.765625 C 8.820312 -1.765625 9.972656 -2.035156 10.921875 -2.578125 C 11.878906 -3.128906 12.601562 -4.007812 13.09375 -5.21875 C 13.582031 -6.4375 13.828125 -8.054688 13.828125 -10.078125 L 13.828125 -11.171875 C 13.828125 -13.179688 13.582031 -14.796875 13.09375 -16.015625 C 12.601562 -17.234375 11.878906 -18.113281 10.921875 -18.65625 C 9.972656 -19.195312 8.820312 -19.46875 7.46875 -19.46875 L 3.96875 -19.46875 Z M 3.96875 -1.765625 "/></g></g></g><g fill="#aad4ff" fill-opacity="1"><g transform="translate(323.164468, 214.276992)"><g><path d="M 4.109375 -21.25 L 4.109375 0 L 2.15625 0 L 2.15625 -21.25 Z M 4.109375 -21.25 "/></g></g></g><g fill="#aad4ff" fill-opacity="1"><g transform="translate(337.32312, 214.276992)"><g><path d="M 8.828125 0.296875 C 6.410156 0.296875 4.59375 -0.515625 3.375 -2.140625 C 2.15625 -3.765625 1.546875 -6.410156 1.546875 -10.078125 L 1.546875 -11.171875 C 1.546875 -14.847656 2.15625 -17.492188 3.375 -19.109375 C 4.59375 -20.734375 6.410156 -21.546875 8.828125 -21.546875 C 11.253906 -21.546875 13.078125 -20.734375 14.296875 -19.109375 C 15.515625 -17.492188 16.125 -14.847656 16.125 -11.171875 L 16.125 -10.078125 C 16.125 -6.410156 15.515625 -3.765625 14.296875 -2.140625 C 13.078125 -0.515625 11.253906 0.296875 8.828125 0.296875 Z M 8.75 -1.46875 L 8.9375 -1.46875 C 10.71875 -1.46875 12.023438 -2.148438 12.859375 -3.515625 C 13.691406 -4.878906 14.109375 -7.066406 14.109375 -10.078125 L 14.109375 -11.171875 C 14.109375 -14.203125 13.691406 -16.390625 12.859375 -17.734375 C 12.023438 -19.085938 10.71875 -19.765625 8.9375 -19.765625 L 8.75 -19.765625 C 6.96875 -19.765625 5.65625 -19.085938 4.8125 -17.734375 C 3.976562 -16.390625 3.5625 -14.203125 3.5625 -11.171875 L 3.5625 -10.078125 C 3.5625 -7.066406 3.976562 -4.878906 4.8125 -3.515625 C 5.65625 -2.148438 6.96875 -1.46875 8.75 -1.46875 Z M 8.75 -1.46875 "/></g></g></g><g clip-path="url(#cbc06dc3ab)"><path fill="#aad4ff" d="M 78.21875 186.382812 C 77.714844 186.382812 77.378906 186.214844 77.042969 185.878906 L 70.316406 179.152344 C 69.644531 178.480469 69.644531 177.472656 70.316406 176.800781 L 77.042969 170.074219 C 77.714844 169.402344 78.722656 169.402344 79.394531 170.074219 C 80.066406 170.75 80.066406 171.757812 79.394531 172.429688 L 73.847656 177.976562 L 79.394531 183.523438 C 80.066406 184.195312 80.066406 185.207031 79.394531 185.878906 C 79.058594 186.214844 78.722656 186.382812 78.21875 186.382812 Z M 78.21875 186.382812 " fill-opacity="1" fill-rule="nonzero"/></g><g clip-path="url(#d03011902c)"><path fill="#aad4ff" d="M 95.027344 186.382812 C 94.523438 186.382812 94.1875 186.214844 93.851562 185.878906 C 93.179688 185.207031 93.179688 184.195312 93.851562 183.523438 L 99.398438 177.976562 L 93.851562 172.429688 C 93.179688 171.757812 93.179688 170.75 93.851562 170.074219 C 94.523438 169.402344 95.53125 169.402344 96.207031 170.074219 L 102.929688 176.800781 C 103.601562 177.472656 103.601562 178.480469 102.929688 179.152344 L 96.207031 185.878906 C 95.867188 186.214844 95.53125 186.382812 95.027344 186.382812 Z M 95.027344 186.382812 " fill-opacity="1" fill-rule="nonzero"/></g><g clip-path="url(#a118d90d60)"><path fill="#aad4ff" d="M 83.261719 189.746094 C 83.09375 189.746094 82.925781 189.746094 82.757812 189.578125 C 81.917969 189.238281 81.410156 188.398438 81.746094 187.390625 L 88.472656 167.21875 C 88.808594 166.378906 89.648438 165.875 90.65625 166.210938 C 91.5 166.546875 92.003906 167.386719 91.667969 168.394531 L 84.941406 188.566406 C 84.605469 189.238281 83.933594 189.746094 83.261719 189.746094 Z M 83.261719 189.746094 " fill-opacity="1" fill-rule="nonzero"/></g></svg>