<?xml version="1.0" standalone="no"?>
<!DOCTYPE svg PUBLIC "-//W3C//DTD SVG 20010904//EN"
 "http://www.w3.org/TR/2001/REC-SVG-20010904/DTD/svg10.dtd">
<svg version="1.0" xmlns="http://www.w3.org/2000/svg"
 width="260.000000pt" height="260.000000pt" viewBox="0 0 260.000000 260.000000"
 preserveAspectRatio="xMidYMid meet">
<metadata>
Created by potrace 1.14, written by Peter Selinger 2001-2017
</metadata>
<g transform="translate(0.000000,260.000000) scale(0.100000,-0.100000)"
fill="#000000" stroke="none">
<path d="M1455 2464 c-76 -25 -114 -101 -102 -204 8 -72 70 -134 131 -132 48
2 102 39 122 84 25 56 22 147 -5 192 -36 58 -89 80 -146 60z"/>
<path d="M486 2431 c-28 -9 -69 -34 -97 -59 -151 -136 -102 -398 93 -499 44
-22 66 -27 133 -27 66 -1 88 3 129 24 148 76 193 270 98 421 -78 123 -227 181
-356 140z"/>
<path d="M1056 2425 c-50 -26 -77 -76 -75 -135 6 -112 87 -199 172 -185 108
19 156 116 113 228 -16 44 -73 106 -99 108 -52 6 -77 2 -111 -16z"/>
<path d="M1774 2345 c-56 -23 -104 -103 -104 -171 0 -30 41 -87 75 -103 37
-18 86 -16 125 4 40 21 82 95 84 149 2 95 -92 158 -180 121z"/>
<path d="M2048 2127 c-86 -52 -108 -169 -42 -226 22 -19 36 -22 70 -18 23 2
53 13 68 23 30 22 66 93 66 129 0 29 -21 75 -42 92 -26 22 -85 22 -120 0z"/>
<path d="M1280 2064 c-213 -41 -348 -127 -418 -268 -46 -91 -61 -158 -58 -267
2 -86 5 -103 35 -162 54 -111 121 -149 282 -161 121 -9 234 -59 298 -132 43
-48 62 -95 68 -165 7 -75 -12 -136 -96 -311 -105 -217 -122 -282 -94 -365 38
-110 167 -160 340 -129 210 37 325 151 426 426 22 60 49 158 47 170 -1 3 3 17
9 32 13 34 37 186 46 288 18 203 10 360 -26 490 -11 41 -22 82 -24 90 -2 8
-16 45 -32 81 -52 121 -133 211 -247 278 -45 26 -196 86 -242 97 -36 8 -280
14 -314 8z"/>
</g>
</svg>
